<?xml version="1.0" encoding="UTF-8"?>
<svg xmlns="http://www.w3.org/2000/svg" id="Layer_1" data-name="Layer 1" viewBox="0 0 24 24" width="40" height="40"><path d="M12,0C5.383,0,0,5.383,0,12s5.383,12,12,12,12-5.383,12-12S18.617,0,12,0Zm0,23c-6.065,0-11-4.935-11-11S5.935,1,12,1s11,4.935,11,11-4.935,11-11,11Z"/><path d="M16.649,13.072l-2.882,2.831c-.187,.187-.473,.448-.774,.715-.148,.131-.316,.224-.493,.286V6.5c0-.276-.224-.5-.5-.5s-.5,.224-.5,.5v10.404c-.177-.063-.345-.155-.493-.286-.301-.266-.587-.527-.777-.717l-2.879-2.828c-.198-.194-.514-.191-.708,.006s-.19,.514,.006,.707l2.876,2.825c.198,.198,.5,.475,.818,.756,.472,.418,1.064,.628,1.656,.628s1.184-.209,1.656-.627c.318-.282,.621-.559,.815-.753l2.879-2.828c.197-.193,.2-.51,.006-.707-.194-.197-.51-.2-.708-.006Z"/></svg>
